<svg width="15" height="16" viewBox="0 0 15 16" fill="none" xmlns="http://www.w3.org/2000/svg">
<path d="M6.50362 0.519201C2.91734 0.519201 0 3.53378 0 7.23961C0 10.9454 2.91734 13.96 6.50362 13.96C7.59995 13.96 8.67769 13.6912 9.5882 13.1728C9.66113 13.2635 9.74199 13.347 9.82976 13.4224L11.6879 15.3425C11.8595 15.542 12.0687 15.7032 12.3028 15.8161C12.5368 15.929 12.7907 15.9913 13.0489 15.9992C13.3071 16.007 13.5641 15.9602 13.8041 15.8617C14.0442 15.7633 14.2622 15.6151 14.4449 15.4264C14.6275 15.2376 14.7709 15.0123 14.8662 14.7643C14.9615 14.5162 15.0068 14.2506 14.9992 13.9839C14.9916 13.7171 14.9313 13.4547 14.822 13.2129C14.7127 12.971 14.5568 12.7548 14.3637 12.5775L12.5055 10.6574C12.415 10.5639 12.3154 10.4802 12.2082 10.4078C12.7099 9.46694 13.0258 8.37248 13.0258 7.22041C13.0258 3.51458 10.1085 0.5 6.5222 0.5L6.50362 0.519201ZM6.50362 2.43932C9.08649 2.43932 11.1491 4.57065 11.1491 7.23961C11.1491 8.50689 10.7031 9.67816 9.92267 10.5422C9.90409 10.5614 9.8855 10.5806 9.86692 10.5998C9.77915 10.6752 9.69829 10.7587 9.62536 10.8494C8.80776 11.6175 7.69285 12.0591 6.48504 12.0591C3.90217 12.0591 1.8396 9.92777 1.8396 7.25881C1.8396 4.58985 3.90217 2.45852 6.48504 2.45852L6.50362 2.43932Z" fill="white"/>
</svg>
