<svg xmlns="http://www.w3.org/2000/svg" viewBox="0 0 120.3515 162.2594"><path d="M104.757 27.229a15.56 15.56 0 0 0-12.03 5.68L69.849 62.201 56.668 36.326a3.59 3.59 0 0 1 3.205-5.227h4.81v-1.776H7.99c3.246-1.02 7.03-2.597 10.514-5.012 0 0 8.569-5.654 9.328-13.769a9.403 9.403 0 1 0-9.327 8.266C13.705 28.654.023 29.315 0 29.315v1.776h1.47c5.954.002 10.78 4.83 10.78 10.783v46.45c0 5.953-4.824 10.78-10.776 10.784H0v1.776h29.771c-11.697 12.284-14.846 29.859-6.455 43.824a34.568 34.568 0 0 0 12.215 12.019c12.318 7.256 29.14 7.623 43.552-.378 12.688-7.049 20.485-18.898 21.895-31.11l-11.845-3.204c3.496 13.455-.552 26.69-11.112 32.556-9.778 5.428-22.45 3.043-32.504-4.981a3.568 3.568 0 0 1-.53-4.974l32.936-42.153 7.543-9.653 31.779-40.679.007-.038a15.485 15.485 0 0 0 3.1-9.297c-.013-8.606-6.989-15.579-15.595-15.587ZM24.76 88.325V41.882c0-5.955 4.827-10.783 10.783-10.783a7.181 7.181 0 0 1 6.398 3.93l19.4 38.072.893 1.742 6.119 12c-9.063-1.047-18.807.703-27.647 5.605a46.358 46.358 0 0 0-8.561 6.1 10.78 10.78 0 0 1-7.381-10.223h-.004Zm49.746 15.617-30.229 38.702a3.59 3.59 0 0 1-5.635.038 43.687 43.687 0 0 1-3.24-4.68c-10.011-16.667-7.162-36.271 6.362-43.781 9.63-5.348 22.083-3.114 32.069 4.641 1.587 1.232 1.912 3.496.673 5.084v-.004Zm34.106-43.646L88.037 86.63A3.594 3.594 0 0 1 82 86.046l-8.145-15.98a10.783 10.783 0 0 1 1.111-11.528L87.428 42.54v.007a13.795 13.795 0 0 1 10.764-5.163c7.633.002 13.82 6.19 13.822 13.822 0 3.48-1.289 6.644-3.417 9.078l.015.012Z" style="fill:#f465a5"/></svg>